<?xml version="1.0" standalone="no"?>
<!DOCTYPE svg PUBLIC "-//W3C//DTD SVG 20010904//EN"
 "http://www.w3.org/TR/2001/REC-SVG-20010904/DTD/svg10.dtd">
<svg version="1.0" xmlns="http://www.w3.org/2000/svg"
 width="700.000000pt" height="700.000000pt" viewBox="0 0 700.000000 700.000000"
 preserveAspectRatio="xMidYMid meet">
<metadata>
Created by potrace 1.11, written by Peter Selinger 2001-2013
</metadata>
<g transform="translate(0.000000,700.000000) scale(0.100000,-0.100000)"
fill="#000000" stroke="none">
<path d="M3215 6974 c-16 -2 -73 -9 -125 -15 -971 -107 -1867 -642 -2447
-1459 -323 -454 -522 -966 -610 -1565 -25 -173 -25 -716 0 -895 157 -1095 758
-2004 1697 -2563 418 -248 883 -403 1395 -462 174 -20 576 -20 755 0 801 91
1521 436 2090 1005 569 567 912 1282 1006 2095 22 192 22 553 0 750 -91 804
-438 1528 -1006 2095 -570 570 -1302 920 -2106 1005 -125 13 -559 19 -649 9z
m462 -1319 c34 -24 36 -69 13 -231 -26 -181 -25 -373 4 -440 l17 -42 69 68
c115 113 228 170 339 170 58 0 131 -20 164 -44 17 -13 17 -15 0 -45 -11 -20
-24 -30 -33 -27 -8 3 -35 12 -60 21 -62 23 -134 15 -209 -25 -59 -32 -146 -99
-138 -106 2 -3 46 3 98 12 105 18 183 15 206 -9 21 -21 21 -73 0 -94 -16 -16
-19 -15 -46 11 -26 25 -34 27 -73 22 -63 -10 -212 -38 -216 -41 -2 -2 95 -101
215 -222 282 -280 446 -478 618 -738 185 -281 310 -563 365 -821 31 -145 38
-371 16 -504 -20 -118 -72 -274 -124 -374 -44 -85 -157 -207 -254 -273 -551
-380 -1625 -419 -2313 -83 -369 180 -583 438 -641 774 -19 108 -13 197 21 333
104 411 500 1020 1084 1671 76 85 101 120 101 140 -1 52 -59 175 -175 367
-126 208 -144 258 -110 295 35 39 92 23 180 -49 37 -30 59 -41 84 -41 36 0 62
23 181 159 59 66 88 67 200 11 44 -22 90 -40 103 -40 30 0 86 41 157 115 54
56 105 95 125 95 6 0 20 -7 32 -15z"/>
<path d="M3070 5378 c-49 -62 -79 -89 -120 -111 -30 -15 -56 -30 -58 -32 -6
-6 125 -95 139 -95 8 0 33 33 55 73 23 40 53 79 67 86 41 22 87 6 149 -49 31
-28 61 -50 67 -50 17 0 70 78 107 157 40 84 43 105 12 75 -28 -26 -106 -61
-135 -62 -12 0 -61 20 -107 45 -47 25 -91 45 -98 45 -7 0 -42 -37 -78 -82z"/>
<path d="M3572 5375 c-40 -100 -95 -188 -146 -232 -57 -51 -79 -45 -184 49
-23 22 -47 36 -51 33 -5 -3 -26 -34 -45 -69 -40 -71 -77 -106 -111 -106 -36 0
-140 70 -219 148 -41 39 -76 72 -79 72 -3 0 37 -70 88 -155 89 -148 136 -251
151 -329 7 -42 19 -49 114 -66 72 -13 166 -2 270 32 59 19 248 104 277 125 9
7 6 24 -14 73 -33 80 -42 239 -23 397 7 57 10 106 8 108 -2 2 -18 -34 -36 -80z"/>
<path d="M3675 4774 c-198 -174 -352 -236 -522 -213 -45 6 -94 22 -145 48
l-77 39 -23 -28 c-13 -15 -74 -85 -136 -156 -139 -157 -316 -376 -444 -550
-399 -541 -600 -995 -560 -1266 63 -431 441 -750 1054 -888 554 -125 1218 -66
1633 145 187 95 318 212 384 343 135 267 158 587 67 915 -109 393 -386 835
-808 1288 -90 97 -358 351 -376 356 -4 1 -25 -14 -47 -33z m65 -984 c12 -12
20 -33 20 -55 0 -64 -23 -75 -155 -75 l-116 0 31 -45 c17 -25 39 -69 49 -98
l18 -52 69 -3 c82 -4 104 -19 104 -72 0 -54 -27 -74 -107 -80 l-65 -5 -19 -59
c-35 -116 -127 -214 -239 -257 -37 -14 -76 -19 -145 -19 -52 0 -95 -4 -95 -9
0 -5 100 -111 222 -236 204 -209 222 -230 222 -262 0 -41 -31 -73 -72 -73 -25
0 -165 138 -525 516 -80 84 -91 117 -54 160 l25 29 169 5 c161 5 170 6 215 33
26 15 58 42 71 60 28 36 57 91 57 106 0 6 -95 11 -261 13 -247 3 -261 4 -275
23 -26 35 -28 65 -7 93 l20 27 257 3 c237 2 256 4 256 20 0 37 -75 123 -135
155 -35 19 -62 22 -207 27 -183 6 -192 8 -204 67 -5 26 -1 37 19 57 l26 26
406 0 c392 0 406 -1 425 -20z"/>
</g>
</svg>
